<svg id="visual" viewBox="0 0 900 600" width="900" height="600" xmlns="http://www.w3.org/2000/svg" xmlns:xlink="http://www.w3.org/1999/xlink" version="1.1"><g fill="none" stroke="#A7233A" stroke-width="2"><circle r="50" cx="566" cy="124"></circle><circle r="8" cx="457" cy="547"></circle><circle r="22" cx="410" cy="318"></circle><circle r="36" cx="192" cy="44"></circle><circle r="47" cx="716" cy="57"></circle><circle r="27" cx="302" cy="475"></circle><circle r="27" cx="697" cy="502"></circle><circle r="39" cx="117" cy="324"></circle><circle r="40" cx="490" cy="236"></circle><circle r="43" cx="290" cy="347"></circle><circle r="47" cx="353" cy="71"></circle><circle r="21" cx="510" cy="380"></circle><circle r="34" cx="132" cy="216"></circle><circle r="25" cx="851" cy="248"></circle><circle r="42" cx="649" cy="367"></circle><circle r="32" cx="113" cy="568"></circle><circle r="7" cx="302" cy="595"></circle><circle r="18" cx="61" cy="115"></circle><circle r="38" cx="881" cy="549"></circle><circle r="34" cx="377" cy="199"></circle><circle r="37" cx="884" cy="354"></circle><circle r="46" cx="2" cy="30"></circle><circle r="32" cx="849" cy="141"></circle><circle r="47" cx="186" cy="460"></circle><circle r="43" cx="46" cy="467"></circle><circle r="13" cx="249" cy="168"></circle><circle r="33" cx="783" cy="392"></circle><circle r="9" cx="676" cy="217"></circle><circle r="25" cx="494" cy="14"></circle><circle r="10" cx="579" cy="578"></circle><circle r="47" cx="17" cy="275"></circle><circle r="21" cx="462" cy="128"></circle><circle r="45" cx="837" cy="23"></circle><circle r="18" cx="598" cy="462"></circle><circle r="47" cx="597" cy="15"></circle><circle r="44" cx="770" cy="575"></circle><circle r="48" cx="8" cy="596"></circle><circle r="11" cx="421" cy="440"></circle></g></svg>